<?xml version="1.0" encoding="utf-8"?>
<!-- Generator: Adobe Illustrator 19.2.0, SVG Export Plug-In . SVG Version: 6.00 Build 0)  -->
<svg version="1.1" id="Capa_1" xmlns="http://www.w3.org/2000/svg" xmlns:xlink="http://www.w3.org/1999/xlink" x="0px" y="0px"
	 viewBox="0 0 496 496" style="enable-background:new 0 0 496 496;" xml:space="preserve">
<style type="text/css">
	.st0{fill:#1D88B6;}
	.st1{fill:#01AFD6;}
	.st2{fill:#3F3A34;}
</style>
<g>
	<path class="st0" d="M248,448c-12.8,0-24.6-6.9-30.8-18L153,315.9l13.9-7.8l64.2,114.1c3.4,6.1,9.9,9.9,16.9,9.9s13.5-3.8,16.9-9.9
		L329,308.1l13.9,7.8L278.8,430C272.6,441.1,260.8,448,248,448z"/>
	<path class="st0" d="M248,480c-24.3,0-46.8-13.2-58.7-34.3l-64.1-114l13.9-7.8l64.2,114C212.3,454,229.5,464,248,464
		s35.7-10,44.8-26.2l64.2-114.1l13.9,7.8l-64.2,114.1C294.8,466.8,272.3,480,248,480z"/>
</g>
<g>
	<path class="st1" d="M152,176c0,8.8,7.2,16,16,16h48c8.8,0,16-7.2,16-16v-32h-80V176z"/>
	<path class="st1" d="M264,144v32c0,8.8,7.2,16,16,16h48c8.8,0,16-7.2,16-16v-32H264z"/>
</g>
<g>
	<polygon class="st2" points="236.3,312 195.8,359.3 204.1,374.1 243.7,328 252.3,328 291.9,374.1 300.2,359.3 259.7,312 	"/>
	<path class="st2" d="M447.8,390.2c-5.4-32.2-28-58.7-59-69L320,298.2V288h-16v21.8l79.8,26.6c25.4,8.5,43.9,30.1,48.3,56.5
		l14.5,87.2h-55.3l-7.3-72.8l-15.9,1.6l7.1,71.2H120.8l7.1-71.2l-15.9-1.6l-7.3,72.8H49.5L64,392.8c4.4-26.4,22.9-48,48.3-56.5
		l79.8-26.6V288h-16v10.2l-68.8,22.9c-31,10.3-53.6,36.8-59,69L30.6,496h434.9L447.8,390.2z"/>
	<path class="st2" d="M147.5,215.6c4.1,14,11.6,26.9,22.2,37.5l31.2,31.2c7.6,7.6,17.6,11.7,28.3,11.7h37.5
		c10.7,0,20.7-4.2,28.3-11.7l31.2-31.2c10.6-10.6,18.2-23.5,22.2-37.5c19.9-2.3,35.5-19,35.5-39.6c0-13.1-6.4-24.7-16.2-32h0.2v-24
		C368,53.8,314.2,0,248,0S128,53.8,128,120v24h0.2c-9.8,7.3-16.2,18.9-16.2,32C112,196.5,127.6,213.3,147.5,215.6z M328,184h-48
		c-4.4,0-8-3.6-8-8v-24h64v24C336,180.4,332.4,184,328,184z M264,136h-8h-16h-8h-21.4c14.2-8.2,26.7-19.3,36.5-32.9l0.9-1.3l0.9,1.3
		c9.8,13.7,22.3,24.7,36.5,32.9H264z M160,152h64v24c0,4.4-3.6,8-8,8h-48c-4.4,0-8-3.6-8-8V152z M314.9,241.8L283.7,273
		c-4.5,4.5-10.6,7-17,7h-37.5c-6.4,0-12.4-2.5-17-7l-31.2-31.2c-11.7-11.7-18.9-26.8-20.6-43.1c2.4,0.8,4.9,1.3,7.6,1.3h48
		c13.2,0,24-10.8,24-24v-24h16v24c0,13.2,10.8,24,24,24h48c2.7,0,5.2-0.5,7.6-1.3C333.8,214.9,326.7,230,314.9,241.8z M351.6,198.6
		c0.2-2.6,0.4-5.2,0.4-7.8V176v-22.5c9.3,3.3,16,12.1,16,22.5C368,186.6,361.1,195.4,351.6,198.6z M144,120c0-57.3,46.7-104,104-104
		s104,46.7,104,104v16h-8c-32.5,0-63.2-15.8-82-42.2l-14-19.5l-14,19.5c-18.9,26.4-49.5,42.2-82,42.2h-8V120z M144,153.5V176v14.9
		c0,2.6,0.2,5.2,0.4,7.8c-9.5-3.2-16.4-12.1-16.4-22.6C128,165.6,134.7,156.8,144,153.5z"/>
</g>
</svg>
