<?xml version="1.0" encoding="utf-8"?>
<!-- Generator: Adobe Illustrator 19.2.0, SVG Export Plug-In . SVG Version: 6.00 Build 0)  -->
<svg version="1.1" id="Capa_1" xmlns="http://www.w3.org/2000/svg" xmlns:xlink="http://www.w3.org/1999/xlink" x="0px" y="0px"
	 viewBox="0 0 496 496" style="enable-background:new 0 0 496 496;" xml:space="preserve">
<style type="text/css">
	.st0{fill:#01AFD6;}
	.st1{fill:#3F3A34;}
	.st2{fill:#3399CC;}
</style>
<g>
	<circle class="st0" cx="248" cy="456" r="32"/>
	<circle class="st0" cx="288" cy="424" r="16"/>
	<circle class="st0" cx="312" cy="400" r="16"/>
	<circle class="st0" cx="336" cy="376" r="16"/>
	<circle class="st0" cx="344" cy="344" r="16"/>
	<circle class="st0" cx="208" cy="424" r="16"/>
	<circle class="st0" cx="184" cy="400" r="16"/>
	<circle class="st0" cx="160" cy="376" r="16"/>
	<circle class="st0" cx="152" cy="344" r="16"/>
</g>
<g>
	<path class="st1" d="M447.8,390.2c-5.4-32.2-28-58.7-59-69L320,298.2V288h-16v14.8c-1.5,4-11.2,25.2-56,25.2
		c-44.4,0-54.4-21-56-25.3V288h-16v10.2l-68.8,22.9c-31,10.3-53.6,36.8-59,69L30.6,496h434.9L447.8,390.2z M432,392.8l8,48.1
		l-52.1,6.5l-4-40.2l-15.9,1.6l7.1,71.2h-95.4c5.1-6.7,8.2-15,8.2-24c0-2.8-0.3-5.5-0.8-8.1c0.3,0,0.5,0.1,0.8,0.1
		c13.2,0,24-10.8,24-24c13.2,0,24-10.8,24-24c13.2,0,24-10.8,24-24c0-4.3-1.2-8.3-3.2-11.8c6.7-4.3,11.2-11.7,11.2-20.2
		c0-5.5-1.9-10.5-5.1-14.6l20.9,7C409.1,344.8,427.6,366.5,432,392.8z M224,456c0-13.2,10.8-24,24-24s24,10.8,24,24s-10.8,24-24,24
		S224,469.2,224,456z M152,352c-4.4,0-8-3.6-8-8s3.6-8,8-8s8,3.6,8,8S156.4,352,152,352z M160,368c4.4,0,8,3.6,8,8s-3.6,8-8,8
		s-8-3.6-8-8S155.6,368,160,368z M184,392c4.4,0,8,3.6,8,8s-3.6,8-8,8s-8-3.6-8-8S179.6,392,184,392z M208,416c4.4,0,8,3.6,8,8
		s-3.6,8-8,8s-8-3.6-8-8S203.6,416,208,416z M344,336c4.4,0,8,3.6,8,8s-3.6,8-8,8s-8-3.6-8-8S339.6,336,344,336z M344,376
		c0,4.4-3.6,8-8,8s-8-3.6-8-8s3.6-8,8-8S344,371.6,344,376z M320,400c0,4.4-3.6,8-8,8s-8-3.6-8-8s3.6-8,8-8S320,395.6,320,400z
		 M296,424c0,4.4-3.6,8-8,8s-8-3.6-8-8s3.6-8,8-8S296,419.6,296,424z M179.7,313.9C186.2,325,203.6,344,248,344s61.8-19,68.3-30.1
		l21.4,7.1c-10.1,2.8-17.6,12-17.6,23c0,4.3,1.2,8.3,3.2,11.8C316.5,360,312,367.5,312,376c-13.2,0-24,10.8-24,24
		c-11.7,0-21.5,8.5-23.6,19.6c-5-2.3-10.6-3.6-16.4-3.6s-11.4,1.3-16.4,3.6c-2.1-11.2-11.8-19.6-23.6-19.6c0-13.2-10.8-24-24-24
		c0-8.5-4.5-16-11.2-20.2c2-3.5,3.2-7.5,3.2-11.8c0-11-7.5-20.2-17.6-23L179.7,313.9z M112.2,336.4l20.9-7
		c-3.1,4.1-5.1,9.1-5.1,14.6c0,8.5,4.5,16,11.2,20.2c-2,3.5-3.2,7.5-3.2,11.8c0,13.2,10.8,24,24,24c0,13.2,10.8,24,24,24
		c0,13.2,10.8,24,24,24c0.3,0,0.5-0.1,0.8-0.1c-0.5,2.6-0.8,5.3-0.8,8.1c0,9,3.1,17.3,8.2,24h-95.4l7.1-71.2l-15.9-1.6l-4,40.2
		L56,440.9l8-48.1C68.4,366.5,86.9,344.8,112.2,336.4z M53.3,456.7l53.1,6.6l-1.7,16.6H49.5L53.3,456.7z M391.2,480l-1.7-16.6
		l53.1-6.6l3.9,23.3H391.2z"/>
	<path class="st1" d="M147.5,215.6c4.1,14,11.6,26.9,22.2,37.5l31.2,31.2c7.6,7.6,17.6,11.7,28.3,11.7h37.5
		c10.7,0,20.7-4.2,28.3-11.7l31.2-31.2c10.6-10.6,18.2-23.5,22.2-37.5c19.9-2.3,35.5-19,35.5-39.6c0-22.1-17.9-40-40-40v8h-8v46.9
		c0,19.2-7.5,37.3-21.1,50.9L283.7,273c-4.5,4.5-10.6,7-17,7h-37.5c-6.4,0-12.4-2.5-17-7l-31.2-31.2c-13.6-13.6-21.1-31.7-21.1-50.9
		V144h-8v-8c-22.1,0-40,17.9-40,40C112,196.5,127.6,213.3,147.5,215.6z M368,176c0,10.6-6.9,19.4-16.4,22.6c0.2-2.6,0.4-5.2,0.4-7.8
		v-37.4C361.3,156.8,368,165.6,368,176z M144,153.5v37.4c0,2.6,0.2,5.2,0.4,7.8c-9.5-3.2-16.4-12.1-16.4-22.6
		C128,165.6,134.7,156.8,144,153.5z"/>
</g>
<path class="st2" d="M440,104h-73.2C358.9,45.4,308.7,0,248,0c-66.2,0-120,53.8-120,120v32h232h8h72c13.2,0,24-10.8,24-24
	S453.2,104,440,104z M208.8,136c3.7-18.2,19.9-32,39.2-32s35.5,13.8,39.2,32H208.8z M352,136h-48.6c-3.9-27.1-27.2-48-55.4-48
	s-51.5,20.9-55.4,48H144v-16c0-57.3,46.7-104,104-104s104,46.7,104,104L352,136L352,136z M440,136h-72v-16h72c4.4,0,8,3.6,8,8
	S444.4,136,440,136z"/>
</svg>
